# xmcd
#
# Track frame offsets: 
#        150
#        12507
#        23585
#        37500
#        52490
#        67440
#        80352
#        91717
#        104157
#        122765
#        142317
#        159097
#        178730
#        204605
#        221512
#        246365
#        268542
#        290907
#        320647
#
# Disc length: 4555 seconds
#
# Revision: 2
# Processed by: cddbd v1.5.2PL0 Copyright (c) Steve Scherf et al.
# Submitted via: ExactAudioCopy v0.99pb4
#
DISCID=2511c913
DTITLE=Earl Hooker - Simply the Best
DYEAR=1999
DGENRE=Blues
TTITLE0=You Shook Me
TTITLE1=Frog Hop
TTITLE2=Tanya
TTITLE3=Messin' Around with the Blues
TTITLE4=Drivin' Wheel
TTITLE5=Sweet Home Chicago
TTITLE6=Sweet Black Angel
TTITLE7=When I Was Drinkin'
TTITLE8=Universal Rock
TTITLE9=Don't Have to Worry
TTITLE10=Come to Me Right Away, Baby
TTITLE11=Hookin'
TTITLE12=You Got to Lose
TTITLE13=Would You Baby
TTITLE14=The Sky Is Crying
TTITLE15=They Call It Stormy Monday
TTITLE16=Farther Up the Road
TTITLE17=Drifting Blues
TTITLE18=If You Miss 'Im...I Got 'Im...
EXTD=
EXTT0=
EXTT1=
EXTT2=
EXTT3=
EXTT4=
EXTT5=
EXTT6=
EXTT7=
EXTT8=
EXTT9=
EXTT10=
EXTT11=
EXTT12=
EXTT13=
EXTT14=
EXTT15=
EXTT16=
EXTT17=
EXTT18=
PLAYORDER=
